<?xml version="1.0" encoding="utf-8"?>
<!-- Generator: Adobe Illustrator 27.5.0, SVG Export Plug-In . SVG Version: 6.00 Build 0)  -->
<svg version="1.1" xmlns="http://www.w3.org/2000/svg" xmlns:xlink="http://www.w3.org/1999/xlink" x="0px" y="0px"
	 viewBox="0 0 500 500" style="enable-background:new 0 0 500 500;" xml:space="preserve">
<g id="BACKGROUND">
	<rect style="fill:#F4F4F2;" width="500" height="500"/>
</g>
<g id="OBJECTS">
	<g>
		<path style="fill:#EDEDED;" d="M432.062,232.447c-1.086-10.154-3.641-20.148-7.239-29.696
			c-4.606-11.151-12.352-20.875-21.633-28.518c-2.791-2.175-5.657-4.28-8.71-6.074c-2.803-1.518-5.785-2.675-8.722-3.906
			c-7.218-2.727-15.139-4.54-22.878-3.63c-8.931,1.124-17.249,4.972-25.215,8.989c-9.989,5.175-19.467,11.266-28.784,17.556
			c-12.652,8.469-24.615,17.931-37.363,26.255c-7.139,4.611-14.354,9.254-22.367,12.072c-4.082,1.606-8.367,3.197-12.45,3.447
			c-3.881,0.379-7.804,0.859-11.699,0.438c-7.665-0.801-14.995-3.709-21.761-7.296c-14.433-8.655-26.015-21.148-38.653-32.098
			c-11.035-9.518-23.735-18.032-38.223-20.943c-9.774-1.496-20.151-0.295-29.159,3.844c-7.156,3.622-12.67,9.802-17.02,16.426
			c-15.98,24.787-15.763,62.541-6.993,89.942c6.984,20.34,18.372,39.018,32.192,55.428c4.253,4.968,8.749,9.774,13.772,13.975
			c0.223,0.229,0.605,0.315,0.894,0.169c0.536-0.189,0.662-0.945,0.263-1.326c-13.649-11.761-23.926-25.7-33.069-41.062
			c-6.908-11.819-12.09-23.678-15.445-36.925c-2.493-10.037-3.154-19.919-3.405-30.439c0.169-19.914,4.297-40.937,17.823-56.577
			c3.171-3.473,6.804-6.586,10.995-8.757c4.336-2.169,9.114-3.477,13.919-4.073c9.641-1.618,19.534,0.171,28.311,4.361
			c20.606,9.391,34.925,27.595,52.541,41.202c5.67,4.641,11.865,8.676,18.77,11.217c6.316,2.628,13.171,4.349,20.049,3.859
			c5.914-0.253,11.783-1.059,17.252-3.43c8.57-2.915,16.287-7.629,23.83-12.549c20.512-13.602,39.681-29.266,61.296-41.177
			c9.818-5.354,20.254-10.601,31.11-11.686c8.297-0.435,16.352,1.711,24.138,5.082c8.299,3.266,16.081,9.682,22.475,16.514
			c4.752,5.103,9.006,11.931,11.965,17.897c3.643,9.019,6.085,18.512,7.587,28.115c1.952,15.041,1.065,32.446-1.504,47.497
			c-1.781,11.214-4.305,22.324-8.105,33.035c-7.228,21.562-19.521,41.355-36.815,56.569c-0.471,0.496-1.162,0.822-1.522,1.401
			c-0.283,0.545,0.326,1.219,0.902,1.032c0.482-0.195,0.813-0.647,1.23-0.949c17.053-14.915,29.634-34.605,36.944-55.989
			c3.992-11.089,6.709-22.588,8.536-34.223C432.576,262.609,433.55,247.438,432.062,232.447z"/>
		<path style="fill:#EDEDED;" d="M330.152,105.18c-1.057-3.796-3.005-7.267-6.021-9.851c-3.324-2.759-7.385-4.518-11.602-5.376
			c-5.424-1.371-10.948,0.165-16.073,1.986c-8.061,2.989-15.123,8.134-20.852,14.506c-6.693,7.018-12.259,15.108-19.545,21.55
			c-4.292,3.63-9.392,6.596-14.596,9.07c-5.588,2.855-11.849,3.938-17.535,4.535c-10.359,1.063-20.812,0.7-31.16,1.9
			c-10.769,1.414-24.944,4.204-29.906,15.104c-3.217,8.513,3.532,19.141,11.048,25.114c0.004,0.018,0.003,0.036,0.009,0.054
			c0.624,1.12,1.793,1.873,2.706,2.759c3.193,2.775,6.557,5.367,10.099,7.681c9.299,5.606,18.997,9.565,30.199,10.673
			c8.242,0.748,16.56-0.76,24.43-3.157c8.666-2.818,16.967-6.654,25.016-10.903c2.244-1.185,4.471-2.401,6.688-3.636
			c0.166-0.092,0.229-0.314,0.149-0.484c10.398-6.82,20.058-14.787,28.866-23.546C314.078,151.135,335.9,122.79,330.152,105.18z
			 M278.534,182.145c-1.91,1.358-3.847,2.675-5.805,3.954c-0.194,0.248-0.39,0.488-0.586,0.731
			c-7.685,4.381-15.547,8.2-23.589,11.175c-8.15,3.117-16.452,5.311-24.802,5.514c-11.979,0.26-22.806-3.828-33.27-9.48
			c-4.349-2.471-7.582-5.004-11.118-7.906c-0.04-0.133-0.122-0.253-0.244-0.323c-0.289-0.117-0.613-0.381-0.976-0.673
			c-1.208-1.044-2.339-2.348-3.311-2.563c-0.017,0-0.032,0.005-0.048,0.005c-5-4.162-9.983-10.308-11.308-17.043
			c-2.018-12.061,12.535-17.771,23.385-19.972c16.156-3.412,34.291-0.266,50.553-5.827c6.934-2.714,13.574-6.363,19.308-11.136
			c5.707-5.042,10.396-11.1,15.45-16.769c4.271-4.894,8.993-9.98,14.058-13.377c6.229-4.08,13.17-7.094,20.138-7.869
			c6.536-0.475,13.655,1.739,18.518,6.675c3.105,3.103,4.714,8.16,5.08,12.135c0.551,7.768-2.862,15.394-6.131,22.212
			C313.237,152.032,297.334,168.431,278.534,182.145z"/>
		<path style="fill:#EDEDED;" d="M155.006,141.165c-0.17-1.626-1.487-3.033-3.129-3.209c-1.863-0.211-3.587,0.829-5.054,1.861
			c-2.922,2.083-5.5,4.615-8.808,5.127c-1.342,0.302-3.312,0.069-5.164,0.087c-2.03,0.018-3.259,1.458-3.126,3.261
			c0.164,4.42,3.093,8.335,6.671,10.807c0.076,0.205,0.33,0.389,0.096,0.152c0.199,0.254,0.473,0.454,0.727,0.65
			c-0.008-0.008-0.011-0.01-0.019-0.017c0.095,0.085,0.229,0.199,0.313,0.246c0.53,0.375,1.128,0.652,1.74,0.865
			c0.234,0.118,1.476,0.418,2.222,0.382c0.902-0.02,1.8-0.208,2.643-0.528c1.677-0.618,2.981-1.929,4.072-3.304
			c2.148-2.715,3.579-5.895,4.969-9.042C154.188,146.205,155.387,143.751,155.006,141.165z M150.147,151.989
			c-2.363,4.277-4.961,8.304-9.315,8.112c-0.042-0.18-0.158-0.344-0.358-0.394c-3.211-0.438-6.037-3.091-7.82-5.619
			c-1.764-2.625-2.514-6.296-1.343-7.24c0.665-0.788,2.435-0.457,4.381-0.392c1.679,0.111,3.749-0.43,4.793-0.932
			c4.511-1.797,9.397-8.2,12.425-5.842C155.571,142.305,152.031,147.924,150.147,151.989z"/>
	</g>
	<path style="fill:#B3BBCE;" d="M421.501,364.342c-6.118-0.571-12.256-0.942-18.402-1.222c0.022-0.324,0.05-0.613,0.077-0.811
		c0.069-0.712,0.362-1.807,1.065-2.666c0.35-0.462,0.62-0.604,1.066-0.932c0.216-0.249-0.122-0.632-0.4-0.455
		c-0.949,0.567-2.193,2.24-2.455,2.767c-0.36,0.484-0.731,1.216-0.986,2.025c-0.776-0.033-1.551-0.071-2.327-0.102
		c0.102-3.282-0.089-5.021,1.858-8.33c0.187-0.304,0.419-0.463,0.604-0.807c0.003-0.109-0.143-0.172-0.219-0.091
		c-1.296,1.363-2.202,3.095-2.838,4.682c-0.59,1.659-0.915,2.628-1.033,4.482c-0.716-0.027-1.431-0.059-2.147-0.083
		c1.428-6.01,3.146-11.824,7.043-16.738c0.933-1.152,2.261-2.722,3.503-3.783c0.043-0.041,0.109-0.062,0.13-0.12
		c0.021-0.066-0.061-0.133-0.121-0.093c-4.967,3.935-7.982,9.676-10.152,15.406c-0.642,1.642-1.312,3.488-1.819,5.281
		c-0.705-0.023-1.411-0.04-2.116-0.061c-0.127-0.494-0.295-0.982-0.446-1.463c-0.284-0.692-0.588-1.931-0.973-2.63
		c-0.167-0.26-0.369-0.63-0.736-0.522c-0.333,0.081-0.455,0.538-0.204,0.773c0.296,0.365,0.555,0.656,0.762,1.387
		c0.116,0.502,0.077,1.239,0.065,1.966c-0.012,0.164-0.017,0.299-0.025,0.444c-6.43-0.192-12.861-0.35-19.284-0.549
		c-23.87-0.631-47.73-1.702-71.597-2.474c-11.628-1.24-26.501-2.082-36.833-3.619c-0.631-0.112-1.225-0.246-1.759-0.396
		c-0.011-0.483,0.411-0.903,1.454-1.141c2.833-0.457,6.975-1.227,7.182-4.77c-0.002-1.451-0.998-2.733-2.166-3.507
		c-0.885-0.502-1.858-0.795-2.849-1.023c-0.637-0.237-1.272-0.419-1.876-0.584c0.116-3.226,0.879-6.331,2.474-9.244
		c0.157-0.271,0.319-0.483,0.507-0.711c0.071-0.066-0.039-0.187-0.111-0.111c-1.36,1.849-2.117,4.102-2.849,6.26
		c-0.345,1.127-0.668,2.375-0.862,3.581c-0.293-0.076-0.59-0.139-0.884-0.211c-0.082-1.413-0.156-2.844-0.494-4.205
		c-0.154-0.223-0.53-0.037-0.448,0.223c0.378,1.374,0.385,2.614,0.269,3.821c-2.455-0.563-4.961-0.974-7.483-1.29
		c-0.07-0.797-0.098-1.659-0.03-2.658c0.091-1.009,0.529-2.653,0.951-3.832c0.309-0.913,0.606-1.655,1.047-2.506
		c0.062-0.208,0.315-0.416,0.244-0.628c-0.048-0.069-0.164-0.062-0.204,0.012c-1.191,2.184-1.966,4.875-2.4,7.291
		c0.125-1.815,0.147-3.661,0.01-5.284c-0.249-2.287-0.877-4.765-1.736-7.033c-0.397-0.79-0.641-1.637-1.178-2.233
		c-0.216-0.128-0.456,0.171-0.27,0.35c0.74,0.639,1.184,1.569,1.522,2.527c1.646,4.795,0.846,9.246,0.152,13.761
		c-0.727-0.08-1.454-0.147-2.18-0.217c-0.419-1.987-1.164-3.743-2.184-5.533c-0.278-0.481-0.579-0.954-0.97-1.352
		c-0.04-0.041-0.107-0.056-0.158-0.03c-0.093,0.033-0.118,0.167-0.047,0.235c1.62,1.799,2.179,4.251,2.421,6.588
		c-1.304-0.121-2.604-0.234-3.894-0.343c-1.216-0.103-2.433-0.192-3.649-0.279c-0.09-0.001-0.18-0.002-0.271-0.003
		c-8.348-0.59-16.701-0.853-25.065-0.963c-0.14-0.002-0.28-0.003-0.42-0.005c-2.417-0.031-4.834-0.053-7.252-0.068
		c-0.164-0.001-0.311-0.027-0.45-0.064c-17.869,0.163-35.71,0.79-53.49,1.915c-14.264,0.891-28.618,1.508-42.76,3.025
		c-0.041-0.628-0.061-1.291-0.034-1.883c0-2.339,0.432-4.546,1.357-6.545c-0.99,1.37-1.506,2.754-1.794,4.48
		c-0.04,0.396-0.338,2.172-0.505,4.059c-1.228,0.135-2.458,0.265-3.682,0.416c-0.193-0.852-0.485-1.63-0.844-2.501
		c-0.195-0.43-0.328-0.926-0.609-1.353c-0.041-0.012-0.079,0.036-0.056,0.073c0.543,0.962,0.637,2.152,0.753,3.064
		c0.016,0.11,0.073,0.476,0.119,0.791c-0.212,0.027-0.426,0.048-0.638,0.075c-0.768-2.525-1.838-4.999-3.522-7.043
		c-0.311-0.361-0.726-0.739-1.183-0.865c-0.119,0.031-0.144,0.204-0.034,0.264c0.876,0.437,1.366,1.264,1.825,2.186
		c0.804,1.71,1.283,3.745,1.641,5.614c-0.148,0.02-0.297,0.035-0.445,0.055c-3.191,0.498-6.489,0.89-9.723,1.414
		c-0.24-5.86,0.524-12.698,3.261-17.859c0.234-0.44,0.491-0.879,0.786-1.224c0.117-0.108-0.064-0.305-0.181-0.181
		c-1.965,2.37-2.748,5.579-3.508,8.51c-0.726,3.556-1.122,7.228-1.1,10.882c-0.611,0.103-1.215,0.217-1.82,0.332
		c-0.243-0.942-0.592-1.819-0.907-2.715c-0.222-0.51-0.355-1.079-0.691-1.527c-0.024-0.007-0.046,0.021-0.033,0.043
		c0.729,1.36,0.75,2.826,1.075,4.301c-0.818,0.162-1.628,0.337-2.426,0.531c-0.432-1.192-1.036-2.402-1.798-3.73
		c-0.481-0.707-0.895-1.548-1.622-2.027c-0.074-0.013-0.126,0.087-0.069,0.14c0.862,0.641,1.417,2.021,1.78,2.797
		c0.46,1.139,0.717,2.087,0.942,3.008c-1.942,0.508-3.819,1.123-5.57,1.929c-4.511,2.47,2.338,4.966,5.655,5.458
		c7.908,1.498,16.096,1.99,24.186,2.655c12.009,0.89,24.049,1.499,36.091,2.045c18.781,0.913,37.591,1.325,56.386,1.871
		c-1.457,0.122-2.925,0.25-4.455,0.439c-2.158,0.363-4.828,0.503-6.201,1.842c-2.152,2.609,5.293,4.979,8.046,5.556
		c12.476,2.609,25.515,3.27,38.342,4.262c41.629,2.381,83.407,2.417,125,1.507c12.307-0.362,24.633-0.702,36.878-1.54
		c8.038-0.615,16.215-1.182,23.766-3.22c2.138-0.639,4.494-1.2,5.995-2.492C434.222,366.014,424.536,364.604,421.501,364.342z"/>
	<path style="fill:#6A656B;" d="M404.044,280.042c-6.125-35.331-32.128-61.556-62.376-66.247c0.361-0.554,0.68-1.161,0.932-1.861
		c0.28-1.161,0.008-2.026-0.992-2.653c-4.103-1.916-8.579-1.484-13.2-1.543c-5.231,0.144-10.419,1.051-15.506,2.281
		c-3.757,0.936-7.342,2.18-10.757,3.874c-0.627-0.679-1.33-1.315-2.136-1.901c0.022-0.048,0.04-0.098,0.047-0.156
		c0.077-0.47,0.398-1.822,0.575-2.762c1.984-8.855,3.643-17.78,4.28-26.846c0.77-7.879,0.617-16.006-0.871-23.825
		c0.382-2.589,0.706-5.175,0.952-7.75c0.826-5.863,0.345-11.708,1.673-17.173c0.708,0.501,1.513,1.003,1.965,1.151
		c0.204,0.061,0.432,0.177,0.654,0.208c-0.011,0.01,0.011,0.024,0.104,0.047c1.22,0.351,2.316,0.529,3.316,0.659
		c-0.012,0,0.032,0.009,0.106,0.014c0.359,0.025,0.991,0.028,1.119,0.003c0.319-0.038,0.668-0.066,0.708-0.497
		c-0.007-0.125-0.015-0.16-0.023-0.15c-0.004-0.03-0.009-0.057-0.014-0.078c-0.051-0.139-0.074-0.188-0.083-0.195
		c-0.043-0.101-0.15-0.21-0.041-0.071c-0.103-0.141-0.145-0.184-0.153-0.174c-0.148-0.183-0.428-0.272-0.649-0.337
		c0.412,0.148-0.904-0.288-0.181,0.062c-0.674-0.364-1.452-0.206-2.142-0.412c-1.156-0.255-1.525-0.451-2.522-0.974
		c-0.621-0.334-1.116-0.693-1.461-0.993c1.823,0.067,3.682,0.179,5.577,0.196c0.006,0.001,0.004,0,0.009,0.001
		c0.204,0.058,0.422,0.001,0.569-0.157c0.196-0.223,0.164-0.182,0.359-0.557c0.005-0.011-0.007-0.005-0.009-0.009
		c0.325-0.487,0.841-1.999,0.166-3.371c-0.084-0.158-0.196-0.292-0.314-0.42c-0.059-0.189-0.137-0.38-0.236-0.524
		c-0.278-0.442-0.727-0.765-1.223-0.919c-1.219-0.286-2.487-0.202-3.729-0.273c-0.756-0.003-1.518-0.134-2.271-0.034
		c-0.519,0.095-1.045,0.325-1.348,0.769c-0.531,0.039-1.044,0.092-1.536,0.157c-0.002-0.035-0.007-0.071-0.007-0.105
		c0-0.008,0-0.023-0.008-0.03c0.265-0.03,0.531-0.061,0.789-0.099c0.129-0.038,0.235-0.114,0.334-0.197
		c0.319-0.311,0.121-0.819-0.281-0.933c-0.03-0.88-0.273-2.677-1.562-2.995c0.015-0.288-0.136-0.622-0.432-0.637
		c-0.015,0-0.023,0.015-0.038,0.015c-0.008-0.008-0.008-0.008-0.03-0.008c-0.288,0.038-0.599,0.205-0.698,0.493
		c-0.03,0.106-0.023,0.228,0,0.341c-0.538,0.311-0.925,0.887-0.963,1.509c-0.038,0.372-0.046,0.743-0.038,1.107
		c0-0.008,0.008-0.03,0.015-0.061c-0.038,0.197-0.03,0.41-0.008,0.614c-0.053,0.023-0.106,0.03-0.152,0.053
		c-0.538,0.372-0.083,1.266,0.531,1.069c0.258-0.046,0.622-0.091,1.031-0.129c0,0.07-0.001,0.14-0.006,0.211
		c-1.08,0.21-2.122,0.593-2.853,1.462c-0.611,0.705-1.23,1.912-1.691,2.452c-1.081,1.273-2.259,2.33-3.6,3.147
		c-0.161,0.089-0.344,0.16-0.514,0.243c-3.435-3.818-7.793-6.765-12.44-8.938c-2.522-1.165-5.143-2.104-7.811-2.878
		c-2.318-2.192-5.131-3.839-8.193-4.764c-0.057-0.017-0.116-0.03-0.173-0.046c-0.023-0.101-0.051-0.219-0.085-0.386
		c-0.086-0.323-0.195-0.657-0.428-0.904c-0.155-0.152-0.332-0.307-0.544-0.371c-0.103-0.025-0.151-0.029-0.156-0.025
		c-0.043-0.01-0.085-0.009-0.128-0.01c-0.643-0.244-0.779-0.132-1.812-0.379c-2.692-0.576-6.076-0.808-8.364-0.804
		c-0.41-0.187-0.902,0.028-1.028,0.466c-0.088,0.304-0.019,0.275-0.026,0.522c-1.405-0.151-2.769-0.26-4.083-0.269
		c-0.008-0.161-0.025-0.322-0.025-0.475c-0.042-0.339-0.034-0.695-0.212-1c-0.195-0.305-0.534-0.492-0.882-0.576
		c-3.357-0.67-13.005-0.966-18.973-1.128c-3.391-0.025-6.867-0.398-10.207,0.339c-0.958,0.305-1.34,0.568-1.73,1.39
		c-0.263,0.492-0.305,1.136-0.297,1.687c-0.254,1.026-0.314,2.103-0.254,3.374c0.085,0.746,0.042,0.848,0.263,1.611
		c0.068,0.187,0.136,0.382,0.28,0.526c0.034,0.034,0.059,0.059,0.102,0.085c0.102,0.059,0.229,0.068,0.348,0.042
		c0.026,0.008,0.059,0.017,0.093,0.017c5.562-0.017,11.259-0.153,17.049,0.059c4.408,0.237,10.089,0.449,13.454,0.331
		c0.653-0.17,0.839-0.763,0.882-1.382c1.95,0.11,3.934,0.246,5.883,0.449c0.043,0.22,0.144,0.466,0.204,0.653
		c0.008,0.017,0.017,0.034,0.017,0.051c0.017,0.034,0.042,0.059,0.068,0.085c-0.39,0.314-0.729,0.704-0.839,0.704
		c-2.764,1.873-5.315,2.077-8.478,2.263c-4.442,0.144-8.927-0.119-13.336,0.593c-2.543,0.432-5.672,1.729-6.214,3.993
		c-0.237,0.907,0.39,2.611,1.551,2.128c1.161-1.017,1.619-1.534,3.086-2.314c1.348-0.771,4.12-1.458,5.951-1.594
		c6.35-0.466,13.03,0.983,19.083-1.585c0.39-0.186,0.814-0.356,1.221-0.61c0.22,0.314,0.67,0.356,1.026,0.348
		c2.043-0.212,3.968-0.348,5.646-1.06c0.216-0.095,0.417-0.206,0.611-0.324c0.028-0.018,0.055-0.036,0.083-0.054
		c0.183-0.116,0.354-0.239,0.512-0.368c2.945,1.265,4.866,3.066,6.365,5.315c2.43,3.8,4.329,7.98,8.302,9.672
		c0.335,0.216,0.771,0.371,1.171,0.465c0.046,0.133,0.085,0.269,0.149,0.392c-1.382,1.348-2.671,2.755-4.086,3.925
		c-0.415,0.39-0.848,0.644-1.263,1.026c-0.153-0.034-0.305-0.059-0.458-0.076c-0.5,0.008-0.848,0.466-1.221,0.755
		c-0.466,0.424-0.975,0.831-1.339,1.339c-0.026,0.017-0.042,0.008-0.059,0.034c-0.593,0.517-0.848,1.153-0.712,1.941
		c0.161,1.297,0.602,2.552,1.034,3.773c0.017,0.059,0.076,0.237,0.229,0.314c0.161,0.093,0.348,0.017,0.492-0.059
		c0.042-0.025,0.076-0.059,0.119-0.085c1.5,4.239,2.891,8.512,4.341,12.759c-0.322,0.415-0.551,0.89-0.687,1.407
		c-0.085,0.288-0.051,1.043,0.136,1.306c-0.009,0.008-0.017,0.025-0.017,0.025c-0.186,0.28-0.348,0.56-0.407,0.746
		c-0.076,0.102-0.153,0.704-0.119,0.661c-0.042,0.246,0.009,0.424,0.17,0.653c0.288,0.305,0.754,0.339,1.153,0.356
		c0.017,0,0.034-0.008,0.051-0.017c0.051,0.127,0.102,0.246,0.144,0.365c-6.774,15.336-15.684,29.621-24.662,43.745
		c-9.817,15.37-20.584,30.181-34.479,42.177c-1.297,1.102-2.908,2.543-4.247,3.679c-4.909-14.743-9.529-29.587-14.412-44.339
		c-0.856-2.798-1.653-5.612-2.425-8.427c0.169-0.025,0.331-0.059,0.5-0.093c0.051-0.008,0.085-0.042,0.119-0.076
		c-0.017,0.025-0.025,0.051,0.034,0.009c0.017-0.017,0.042-0.026,0.059-0.034c0.195-0.068,0.254-0.237,0.254-0.382
		c0-0.076-0.017-0.152-0.042-0.195c-0.085-0.288-0.178-0.568-0.263-0.856c-0.102-0.543-0.195-1.085-0.424-1.594
		c-0.008-0.008-0.008-0.026-0.017-0.026c0-0.008,0-0.008,0-0.008h-0.008v-0.008l-0.008-0.008c-0.008-0.008-0.008-0.017-0.008-0.017
		s0,0-0.009-0.008c-0.042-0.119-0.136-0.22-0.246-0.28c-0.187-0.093-0.407-0.102-0.653-0.11c-0.008-0.017-0.017-0.051-0.017-0.076
		c-0.534-1.857-1.068-3.713-1.687-5.536c-0.49-1.592-0.945-3.193-1.392-4.796c2.264-1.526,4.254-3,6.142-4.633
		c1.1-0.996,2.1-2.099,3.039-3.246c0.115-0.178,0.273-0.342,0.419-0.511c1.885-1.057,3.793-2.016,5.797-2.592
		c0.949-0.254,1.831-0.331,2.933-0.237c0.059,0,0.11-0.008,0.153-0.034c0.178,0.034,0.407-0.017,0.627-0.169
		c1.221-0.856,0.017-2.959-0.89-3.874c-2.433-2.382-5.867-3.247-9.19-2.874c-3.196,0.203-7.816,1.238-11.42,2.153
		c-4.926,1.246-9.546,2.34-14.471,2.611c-2.933,0.28-6.587,0.382-9.571-0.161c-1.594-0.297-4.01-0.814-4.96-0.89
		c-1.272-0.263-2.331,0.144-3.162,1.331c-1.721,3.128-0.093,6.519,2.026,8.936c1.848,1.924,3.823,2.738,6.392,3.535
		c0.309,0.094,0.62,0.175,0.931,0.255c-0.258,0.072-0.517,0.143-0.771,0.229c-0.478,0.162-0.988,0.344-1.336,0.725
		c-0.602,0.635-0.287,1.685,0.598,1.818c0.313,0.072,0.63,0.041,0.944-0.003c0,0.001-0.001,0.002,0.016,0.001
		c0.402-0.021,0.594-0.014,0.928-0.031c0.035,0.002,0.068,0.008,0.103,0.01c-1.441,0.628-3.113,0.941-3.233,1.88
		c-0.013,0.694,0.759,0.801,1.305,0.864c0.02,0.004,0.038,0.017,0.06,0.019c0.516,0.112,1.089,0.173,1.676,0.215
		c-0.525,0.185-1.015,0.374-1.531,0.597c-0.086,0.061-0.128,0.093-0.141,0.106c-0.29,0.247-0.381,0.703-0.175,1.042
		c0.277,0.406,0.754,0.6,1.218,0.727c0.023,0.292,0.11,0.525,0.177,0.624c0.227,0.387,0.159,0.364,0.604,0.733
		c0.489,0.354,1.162,0.341,1.68,0.054c0.414-0.27,0.456-0.434,0.601-0.609c0.076-0.127,0.124-0.272,0.155-0.419
		c0.192-0.005,0.385-0.006,0.577-0.02c2.681-0.167,5.176-1.099,7.529-2.33c2.92-0.081,5.766-1.06,8.501-2.424
		c0.775,2.44,1.558,4.877,2.35,7.305c0.186,0.534,0.39,1.212,0.585,1.814c-0.025,0.025-0.059,0.042-0.085,0.068
		c-0.229,0.144-0.466,0.305-0.729,0.534c-0.331,0.271-0.203,0.873-0.051,1.306c0.238,0.661,0.348,1.492,0.916,1.958
		c0.458,0.254,0.941-0.161,1.323-0.398c0.017-0.017,0.034-0.025,0.059-0.042c0.407,1.339,0.856,2.67,1.314,3.993
		c-1.63,0.97-3.173,2.06-4.673,3.212c-0.151-2.456-0.325-4.876-0.483-7.266c-0.022-0.214,0.076-0.471-0.087-0.643
		c-0.1-0.106-0.248-0.109-0.367-0.052c-0.239-0.468-0.792-0.824-1.543-0.841c-0.432-0.182-0.888-0.307-1.341-0.383
		c0.013,0,0.028,0,0.039-0.001c-0.157-0.042-0.316-0.076-0.474-0.111c-3.247-0.595-6.581-0.42-9.868-0.496
		c-1.035,0.005-2.071,0.002-3.107,0.004c-14.934-0.625-29.879-1.141-44.813-0.265c-0.95,0.033-1.898,0.075-2.847,0.123
		c-3.076-0.094-5.896-0.205-8.728,0.346c-0.473,0.184-0.978,0.402-1.276,0.831c-0.394,0.567-0.135,1.374,0.369,1.787
		c0.629,0.496,1.414,0.661,2.204,0.757c0.692,0.252,1.564,0.331,2.451,0.312c0.571,2.52,1.187,5.027,1.826,7.529
		c-8.447,5.48-15.259,13.167-19.975,22.207c-3.044,5.917-5.349,12.233-6.858,18.719c-1.153,4.977-1.526,10.139-3.408,14.921
		c-0.22,1.263,1.679,1.416,2.543,1.204c0.933-0.238,1.767-0.71,2.545-1.28c-0.233,2.626-0.366,5.292-0.366,7.999
		c0,0.885,0.026,1.761,0.051,2.638c-0.002,0.252-0.016,0.501-0.016,0.753c0,21.754,8.789,41.029,22.32,52.986
		c-0.609,1.982-1.228,3.96-1.863,5.933c-0.361,0.849-0.703,1.699-1.007,2.558c-0.498,1.413-1.058,2.923-0.807,4.441
		c0.31,1.235,1.591,1.733,3.097,1.936c0.09,0.031,0.185,0.04,0.28,0.035c1.72,0.189,3.666,0.039,4.791,0.161
		c3.132,0.065,6.26-0.059,9.38-0.303c10.26,0.13,20.519,0.054,30.683-1.563c3.158-0.636,7.709-0.55,6.099-4.312
		c12.881-5.546,23.519-16.75,29.857-31.128c3.717,1.123,7.45,2.192,11.202,3.188c3.166,0.777,6.159,0.384,8.856-0.776
		c1.18,1.953,2.369,3.888,3.551,5.715c0.278,0.504,0.558,1.006,0.839,1.503c-1.568,1.1-3.113,2.221-4.139,3.13
		c-0.02,0.018-0.034,0.042-0.05,0.064c-0.094,0.096-0.176,0.206-0.235,0.327c-0.093,0.135-0.109,0.282-0.082,0.42
		c-0.214,0.185-0.339,0.466-0.238,0.783c0.344,1.068,0.715,2.183,1.562,2.965c0.339,0.342,0.822,0.517,1.298,0.4
		c3.032-1.642,5.747-3.884,8.664-5.737c2.054-1.428,4.173-2.772,6.184-4.258c0.763-0.78,0.004-1.791-0.627-2.377
		c-0.735-0.677-1.403-1.52-2.341-1.914c-0.561-0.127-1.118,0.122-1.601,0.39c-0.686,0.476-1.359,0.971-2.025,1.476
		c-0.412,0.274-0.822,0.551-1.233,0.827c-1.159-2.033-2.514-4.342-3.48-6.145c-0.23-0.399-0.454-0.803-0.679-1.206
		c1.537-1.478,2.882-3.198,3.976-5.047c1.509-2.713,2.467-6.053,2.119-9.181c1.238,0.178,2.433,0.364,3.569,0.551
		c1.543,0.424,1.84-0.356,1.857-2.365c-0.105-3.883-1.045-7.849-3.04-11.362c2.629-2.27,4.909-4.902,7.201-7.504
		c6.007-6.881,12.064-13.727,17.799-20.839c12.616-15.668,23.281-32.865,32.022-50.976c0.112,0.01,0.226,0.004,0.336-0.023
		c0.051-0.008,0.093-0.034,0.144-0.051c0.017,0,0.042,0,0.068-0.008c0.136-0.034,0.212-0.059,0.22-0.068
		c0-0.009,0.008-0.009,0.017-0.009c0.153,0.441,0.305,0.882,0.466,1.323c-0.348,0.975-0.441,2.068-0.526,3.069
		c-0.186,3.111,0.152,6.18,0.721,9.232c0.07,0.403,0.145,0.808,0.217,1.215c-1.369,1.062-2.445,1.952-2.837,2.32
		c-10.301,9.029-18.227,20.77-23.077,33.563c-3.789,10.368-5.205,21.491-5.366,32.495c-0.127,5.256,0.424,10.504,1.187,15.709
		c0.483,2.247,0.237,4.027,1.34,5.722c0.042,0.051,0.093,0.093,0.144,0.144c-0.11,0.492,0.246,1.068,0.814,1.051
		c1.615,0.012,3.225-0.134,4.837-0.237c10.875,37.909,45.262,62.781,80.685,56.64C386.543,363.525,411.522,323.177,404.044,280.042z
		 M174.633,198.85c0.223,0.12,0.486,0.109,0.737,0.13c-1.889,0.656-3.764,0.994-5.527,0.829c0.452-0.128,0.979-0.298,1.655-0.583
		c0.314-0.167,1.745-0.431,1.295-1.488c-0.175-0.536-2.069-0.582-1.957-0.616c-0.557-0.028-1.301-0.067-2.024-0.105
		c0.88-0.384,1.681-0.686,2.937-1.084c0.226-0.056,0.456-0.151,0.592-0.348c0.876-1.659-1.984-1.495-3.352-1.51
		c0.221-0.148,0.452-0.302,0.686-0.455c0.108-0.042,0.212-0.081,0.259-0.095c0.139-0.065,0.289-0.102,0.44-0.136
		c2.52,0.402,5.078,0.43,7.632,0.229c-0.921,0.484-1.849,0.954-2.795,1.388c-0.295,0.08-0.995,0.33-1.009,0.641
		c-0.412,1.689,2.099,0.86,2.725,0.844c-0.621,0.251-1.231,0.501-1.658,0.694c-0.338,0.167-0.71,0.347-0.918,0.674
		C174.149,198.194,174.284,198.673,174.633,198.85z M177.84,197.956c-0.312-0.01-0.607-0.024-0.877-0.043
		c0.831-0.394,1.82-0.857,2.519-1.188c0.434-0.232,1.132-0.409,1.154-0.999c0.013-0.635-0.719-0.67-1.191-0.613
		c-0.193,0.008-1.407-0.08-0.941-0.019c-0.191-0.001-0.37,0.001-0.539,0.003c1.178-0.597,2.38-1.165,3.495-1.874
		c1.612-0.235,3.214-0.531,4.794-0.848c0.047,0.151,0.096,0.301,0.143,0.453c-1.898,1.263-3.815,2.496-5.801,3.623
		C179.692,197.001,178.769,197.508,177.84,197.956z M181.723,197.751c-0.057,0.014-0.125,0.025-0.19,0.038
		c0.417-0.256,0.83-0.516,1.239-0.779c1.316-0.8,2.529-1.604,3.702-2.411c0.05,0,0.101-0.008,0.153-0.04
		c0.084-0.055,0.175-0.117,0.26-0.173c0.141,0.451,0.283,0.902,0.426,1.353C185.516,196.616,183.884,197.28,181.723,197.751z
		 M193.075,192.343c-0.173-0.626-0.348-1.251-0.521-1.876c0.087-0.063,0.176-0.125,0.262-0.189c2.104-0.883,4.149-1.921,6.129-3.04
		c0.146-0.082,0.292-0.168,0.439-0.251C197.432,188.993,195.347,190.763,193.075,192.343z M192.417,219.139
		c-1.165,1.747-2.285,3.603-3.434,5.379c-0.018-0.89-0.052-1.769-0.085-2.648C190.105,220.902,191.288,219.985,192.417,219.139z
		 M147.29,268.437c-0.577,0.017-1.145,0.034-1.713,0.068h-0.059c-0.081,0.001-0.163,0.005-0.243,0.006
		c0.913-5.932,1.871-11.857,2.952-17.761c0.751,3.507,1.497,7.015,2.25,10.519c0.034,0.148,0.068,0.296,0.102,0.444
		c-0.409,1.016-0.82,2.03-1.229,3.046C148.659,265.984,147.973,267.21,147.29,268.437z M146.247,300.094
		c-0.315,2.293-0.623,4.588-0.909,6.885c-0.253-1.314-0.515-2.627-0.762-3.942c-0.245-1.48-0.492-2.959-0.737-4.438
		c0.15-0.688,0.293-1.378,0.442-2.067c0.34,0.148,0.677,0.292,1.018,0.441C145.606,298.014,145.929,299.054,146.247,300.094z
		 M149.208,292.327c0.664-0.385,1.271-0.834,1.76-1.328c1.111,0.986,2.217,1.978,3.335,2.955c0.232,0.65,0.463,1.3,0.698,1.942
		c0.363,0.985,0.719,1.973,1.077,2.96c-0.247-0.094-0.49-0.182-0.737-0.278c-0.23-0.089-0.451-0.18-0.677-0.269
		C152.861,296.301,151.051,294.299,149.208,292.327z M153.089,297.668c-1.229-0.511-2.425-1.032-3.615-1.564
		c-0.16-0.563-0.32-1.126-0.48-1.689c-0.145-0.557-0.288-1.118-0.425-1.671C150.081,294.381,151.59,296.02,153.089,297.668z
		 M151.947,289.907c0.332,0.107,0.664,0.212,0.996,0.318c0.301,0.794,0.595,1.6,0.885,2.41c-0.809-0.696-1.617-1.393-2.413-2.104
		C151.601,290.334,151.778,290.126,151.947,289.907z M176.959,244.893c-2.618,3.454-5.327,6.842-7.893,10.331
		c-3.394,4.602-6.807,9.191-10.223,13.776c-0.228-0.018-0.455-0.038-0.683-0.055c3.957-6.73,7.958-13.434,11.838-20.208
		c2.006-3.565,3.977-7.151,5.837-10.794c1.079,0.95,2.127,1.965,3.147,3.037C178.296,242.279,177.62,243.582,176.959,244.893z
		 M181.705,244.071c1.491,1.831,2.872,3.762,4.135,5.782c-0.75,0.559-1.491,1.131-2.259,1.648c-2.951,2.152-5.891,4.319-8.839,6.474
		C176.866,253.224,179.165,248.468,181.705,244.071z M155.254,289.21c-0.693-0.438-1.37-0.912-2.049-1.381
		c0.08-0.171,0.158-0.34,0.224-0.504c1.946,0.488,3.911,0.966,5.875,1.444c0.323,1.04,0.648,2.079,0.978,3.116
		c-0.611-0.204-1.223-0.406-1.835-0.608C157.384,290.585,156.327,289.886,155.254,289.21z M155.863,290.423
		c-0.825-0.261-1.648-0.544-2.473-0.815c-0.139-0.356-0.264-0.717-0.406-1.072C153.948,289.159,154.905,289.791,155.863,290.423z
		 M154.022,264.645c2.178-3.725,4.414-7.416,6.78-11.02c-1.574,5.049-3.125,10.106-4.551,15.198
		c-0.407-0.028-0.814-0.051-1.22-0.077c-0.126-0.465-0.26-0.928-0.385-1.394C154.449,266.463,154.234,265.552,154.022,264.645z
		 M157.441,268.49c1.65-5.828,3.358-11.641,5.092-17.445c1.425-2.086,2.895-4.142,4.434-6.15c2.057-2.664,4.408-5.685,6.895-8.593
		c0.469,0.369,0.931,0.752,1.39,1.143C169.821,248.069,163.502,258.209,157.441,268.49z M166.214,238.665
		c0.605-2.09,1.191-4.185,1.76-6.285c0.76,0.42,1.512,0.863,2.255,1.336C168.855,235.336,167.51,236.981,166.214,238.665z
		 M164.854,240.482c-2.827,3.794-5.485,7.717-7.984,11.729c-1.43,2.192-2.791,4.427-4.125,6.678
		c0.012-0.089,0.025-0.179,0.037-0.268c2.37-5.972,4.749-11.965,7.137-17.698c1.504-3.609,2.848-6.826,4.4-10.338
		c1.003,0.429,1.992,0.905,2.97,1.422C166.514,234.843,165.698,237.667,164.854,240.482z M155.353,294.869
		c2.572,2.233,5.169,4.439,7.781,6.626c-2.074-0.762-4.156-1.539-6.246-2.334c-0.051-0.137-0.099-0.275-0.151-0.412
		C156.269,297.459,155.812,296.164,155.353,294.869z M161.458,303.561c0.993,0.397,1.994,0.776,2.998,1.148
		c0.681,2.057,1.363,4.113,2.036,6.173c-2.703-2.782-5.376-5.592-8.029-8.42C159.46,302.84,160.458,303.209,161.458,303.561z
		 M164.243,301.473c-0.734-2.3-1.469-4.599-2.204-6.898c6.372,4.362,12.693,8.8,19.195,12.965c-4.462-1.367-8.906-2.792-13.328-4.28
		c-0.91-0.337-1.822-0.68-2.733-1.015C164.864,301.986,164.552,301.732,164.243,301.473z M163.057,300.471
		c-1.591-1.344-3.178-2.694-4.755-4.052c-1.144-0.952-2.285-1.906-3.419-2.869c-0.369-1.033-0.773-2.053-1.166-3.077
		c1.45,0.466,2.898,0.935,4.344,1.412c0.94,0.63,1.88,1.259,2.815,1.896C161.593,296.014,162.322,298.243,163.057,300.471z
		 M161.123,291.707c-0.277-0.893-0.538-1.79-0.802-2.687c0.564,0.137,1.124,0.274,1.689,0.41c1.546,0.827,3.086,1.662,4.597,2.55
		c2.602,1.484,5.163,3.038,7.721,4.597c-4.358-1.421-8.696-2.902-13.042-4.358C161.232,292.048,161.178,291.877,161.123,291.707z
		 M160.758,269.052c2.047-1.469,4.08-2.956,6.12-4.435c-0.557,1.137-1.116,2.273-1.684,3.405c-0.001,0.001-0.001,0.002-0.001,0.003
		C163.715,268.365,162.235,268.701,160.758,269.052z M164.715,268.976c-0.08,0.16-0.161,0.32-0.241,0.479
		c-0.449-0.038-0.898-0.071-1.346-0.109C163.657,269.224,164.186,269.098,164.715,268.976z M160.11,268.539
		c4.529-6.129,9.047-12.266,13.672-18.322c0.481-0.639,0.972-1.274,1.462-1.91c-0.023,0.038-0.045,0.077-0.071,0.115
		c-2.762,4.796-5.163,9.779-7.587,14.751C165.098,264.966,162.606,266.755,160.11,268.539z M170.57,267.652
		c0.477-0.106,0.952-0.216,1.429-0.322c-0.53,0.241-1.067,0.483-1.599,0.724C170.457,267.92,170.513,267.787,170.57,267.652z
		 M170.013,268.975c1.686-0.77,3.373-1.54,5.051-2.304c2.779-0.605,5.557-1.215,8.342-1.793c2.48-0.514,4.965-1.007,7.449-1.505
		c0.32,1.35,0.6,2.717,0.849,4.099c-5.851,0.75-11.669,1.701-17.476,2.727c-1.533-0.105-3.067-0.197-4.599-0.313
		C169.755,269.588,169.886,269.277,170.013,268.975z M178.778,264.989c0.577-0.26,1.159-0.524,1.732-0.782
		c0.467-0.168,5.505-2.619,9.293-4.762c0.298,1.008,0.575,2.026,0.832,3.054C186.68,263.316,182.726,264.14,178.778,264.989z
		 M189.594,258.735c-4.467,2.647-9.22,4.802-13.954,6.943c-1.56,0.34-3.117,0.69-4.676,1.037c1.013-2.402,2.066-4.874,3.162-7.36
		c3.688-2.697,7.37-5.401,11.047-8.111c0.356-0.245,0.707-0.502,1.056-0.763c0.352,0.579,0.693,1.166,1.026,1.759
		C188.134,254.343,188.913,256.512,189.594,258.735z M187.159,225.491c0.07,0.418,0.039,1.048,0.038,1.763
		c-0.044,0.066-0.087,0.133-0.131,0.199c-0.65-0.66-1.31-1.309-1.985-1.945c-0.013-0.141-0.025-0.282-0.038-0.422
		c0.622-0.539,1.244-1.068,1.867-1.588C186.978,224.143,187.057,224.801,187.159,225.491z M186.086,211.31
		c0.142,1.944,0.161,3.897,0.288,5.843c0.036,0.359,0.066,0.709,0.096,1.059c-0.627,0.518-1.25,1.043-1.869,1.574
		c-0.002-0.047-0.007-0.093-0.009-0.14c-0.079-2.464-0.096-4.93-0.281-7.39c-0.017-0.297-0.033-0.595-0.049-0.892
		C184.875,211.392,185.482,211.37,186.086,211.31z M170.97,210.751c1.274,0.045,2.548,0.085,3.822,0.116
		c1.637,0.058,3.273,0.114,4.909,0.198c0.713-0.003,1.433,0.051,2.154,0.115c0.469,3.068,0.274,7.342,0.539,10.448
		c-0.298,0.243-0.594,0.486-0.889,0.732c-4.054-3.327-8.489-6.186-13.276-8.324c-3.101-1.341-6.329-2.538-9.631-3.414
		C162.723,210.623,166.847,210.649,170.97,210.751z M156.741,228.24c2.37,0.467,4.696,1.171,6.966,2.097
		c-3.657,8.19-7.097,16.476-10.468,24.792c0.988-7.587,1.919-15.121,2.798-22.467C156.253,231.186,156.473,229.708,156.741,228.24z
		 M155.958,228.091c-1.751,9.483-2.398,19.15-3.781,28.692c-0.011,0.087-0.023,0.175-0.034,0.262
		c-0.548-2.118-1.109-4.253-1.685-6.406c-0.412-1.736-0.803-3.476-1.207-5.214c0.141-0.717,0.269-1.436,0.414-2.152
		c1-5.201,2.118-10.381,3.096-15.587C153.834,227.777,154.9,227.906,155.958,228.091z M145.283,227.808
		c1.458-0.178,2.928-0.268,4.407-0.268c0.762,0,1.522,0.026,2.279,0.073c-1.024,5.264-2.129,10.512-3.19,15.77
		c-1.18-5.117-2.359-10.233-3.53-15.351C145.26,227.957,145.271,227.883,145.283,227.808z M144.647,234.693
		c0.282,1.262,0.59,2.517,0.895,3.773c0.762,3.38,1.495,6.767,2.224,10.154c-0.232,1.225-0.477,2.447-0.694,3.675
		c-0.955,5.256-1.854,10.761-2.694,16.25c-0.818,0.048-1.643,0.145-2.446,0.324c-0.051,0.008-0.102,0.008-0.161,0.017
		c-0.079,0.022-0.177,0.024-0.248,0.072c-0.253-1.436-0.497-2.872-0.728-4.308c0.679-8.385,1.554-16.763,2.588-24.699
		c0.298-2.141,0.638-4.275,0.982-6.408C144.46,233.928,144.552,234.311,144.647,234.693z M143.391,229.574
		c0.172,0.708,0.347,1.415,0.521,2.123c-1.607,9.616-2.788,19.293-3.732,28.999c-0.897-5.985-1.659-11.973-2.354-17.969
		c-0.533-4.207-1.067-8.415-1.574-12.625c2.214-0.862,4.48-1.52,6.787-1.947C143.157,228.628,143.272,229.101,143.391,229.574z
		 M131.478,315.59c-1.609,4.452-3.273,8.908-4.713,13.424c-0.141-0.113-0.294-0.228-0.432-0.341
		c-0.493-0.394-0.953-0.799-1.423-1.201c2.902-9.396,5.886-18.766,8.737-28.177c1.444-1.893,2.887-3.786,4.325-5.682
		c0.531,0.263,1.057,0.528,1.593,0.786C136.779,301.428,133.998,308.459,131.478,315.59z M139.166,297.119
		c-1.421,7.797-2.726,15.616-3.876,23.455c-0.575,4.351-1.106,8.709-1.612,13.069c-0.007,0.068-0.011,0.137-0.018,0.205
		c-2.173-1.319-4.272-2.788-6.12-4.221c2.898-9.155,6.09-18.215,9.486-27.198C137.714,300.648,138.437,298.882,139.166,297.119z
		 M137.001,293.117c0.135,0.069,0.269,0.138,0.405,0.207c-1.076,1.415-2.154,2.829-3.233,4.243c0.204-0.677,0.415-1.351,0.617-2.029
		c0.066-0.232,0.141-0.462,0.21-0.693C135.664,294.266,136.333,293.692,137.001,293.117z M135.386,293.607
		c0.122-0.376,0.245-0.751,0.37-1.126c0.187,0.102,0.385,0.194,0.574,0.294C136.015,293.052,135.701,293.33,135.386,293.607z
		 M133.9,271.991c-1.093-2.383-2.182-4.767-3.259-7.158c1.549,2.274,3.133,4.524,4.706,6.782
		C134.859,271.699,134.375,271.828,133.9,271.991z M135.684,253.14c-2.128-6.517-4.215-13.046-6.27-19.586
		c2.002-1.255,4.07-2.319,6.191-3.189c1.4,11.403,2.535,22.681,4.24,33.905c-0.043,0.471-0.09,0.941-0.132,1.411
		c-0.005,0.053-0.008,0.106-0.013,0.159C138.319,261.621,137.01,257.377,135.684,253.14z M126.461,210.453
		c3.57,0.038,7.136,0.184,10.705,0.282c-0.115,0.034-0.231,0.062-0.345,0.097c-0.009,0-0.017,0-0.025,0.008
		c-2.806,0.831-5.57,1.797-8.24,2.984c-1.537,0.668-3.032,1.404-4.486,2.201c-0.33-1.133-0.665-2.264-0.986-3.4
		c-0.2-0.712-0.386-1.428-0.574-2.143C123.827,210.459,125.144,210.429,126.461,210.453z M128.68,245.673
		c-1.34-2.562-2.73-5.098-3.944-7.72c0.404-0.303,0.819-0.59,1.23-0.881C126.853,239.945,127.759,242.811,128.68,245.673z
		 M124.076,238.44c1.741,4.149,4.241,7.975,6.038,12.107c0.092,0.201,0.176,0.396,0.267,0.597
		c2.054,6.786,4.082,13.583,6.186,20.354c-0.111,0.003-0.223,0.009-0.334,0.016c-2.498-3.547-4.974-7.11-7.399-10.707
		c-1.748-3.928-3.472-7.867-5.164-11.82c-1.003-2.33-2.029-4.847-3.056-7.388C121.789,240.396,123.034,239.245,124.076,238.44z
		 M120.048,242.19c2.027,4.926,4.137,9.892,6.298,14.863c-0.899-1.355-1.807-2.704-2.694-4.068
		c-1.853-2.867-3.698-5.739-5.504-8.636C118.698,243.674,119.345,242.935,120.048,242.19z M117.362,245.372
		c0.094-0.133,0.209-0.28,0.317-0.423c3.381,5.46,6.877,10.847,10.456,16.179c1.642,3.729,3.308,7.455,4.993,11.167
		c-0.2,0.088-0.397,0.183-0.591,0.285c-1.4-0.817-2.801-1.632-4.204-2.441c-2.386-3.563-4.805-7.105-7.21-10.655
		c-2.199-3.24-4.364-6.503-6.594-9.722c-0.032-0.038-0.061-0.085-0.09-0.131C115.383,248.188,116.353,246.764,117.362,245.372z
		 M131.813,273c-0.296,0.189-0.583,0.393-0.856,0.613c-0.13-0.034-0.261-0.067-0.392-0.1c-0.445-0.676-0.888-1.353-1.337-2.027
		C130.092,271.988,130.952,272.495,131.813,273z M110.205,256.909c1.134-2.271,2.421-4.464,3.792-6.603
		c0.385,0.589,0.772,1.177,1.156,1.767c2.438,3.734,4.97,7.405,7.49,11.085c1.373,2.039,2.764,4.067,4.154,6.095
		c-5.857-3.364-11.748-6.671-17.642-9.969C109.496,258.45,109.846,257.645,110.205,256.909z M108.812,260.142
		c3.963,2.461,8.272,4.378,12.302,6.726c2.217,1.22,4.417,2.469,6.608,3.735c0.601,0.878,1.196,1.76,1.793,2.64
		c-7.64-1.975-15.254-4.058-22.926-5.901C107.15,264.931,107.931,262.42,108.812,260.142z M106.39,268.304
		c1.647,0.384,3.294,0.77,4.92,1.208c6.296,1.582,12.583,3.199,18.888,4.744c0.006,0.009,0.012,0.018,0.018,0.027
		c-0.544,0.546-1.019,1.154-1.39,1.824c-0.627,1.055-0.954,2.245-1.09,3.458c-0.28-0.12-0.563-0.24-0.835-0.358
		c-6.995-2.746-13.785-6.261-20.804-9.465C106.178,269.275,106.289,268.786,106.39,268.304z M129.449,287.507
		c-4.793,2.328-9.579,4.671-14.359,7.023c1.12-0.859,2.244-1.709,3.393-2.519c3.068-2.288,6.547-4.536,9.882-6.689
		c0.192,0.665,0.483,1.324,0.907,1.964C129.326,287.363,129.393,287.431,129.449,287.507z M105.785,271.916
		c0.049-0.477,0.121-0.979,0.199-1.485c3.137,1.452,6.289,2.872,9.343,4.501c4.047,1.976,8.208,3.703,12.342,5.488
		c-0.01,0.254-0.016,0.508-0.012,0.761c0.007,0.563,0.056,1.124,0.145,1.679c-7.457-0.072-14.915-0.229-22.37-0.082
		C105.295,279.255,105.41,275.664,105.785,271.916z M105.466,283.544c7.49-0.167,14.984-0.076,22.475,0.041
		c0.039,0.171,0.09,0.339,0.138,0.507c-6.24,1.496-12.476,3.027-18.668,4.685c-1.124,0.302-2.256,0.566-3.39,0.823
		C105.747,287.592,105.566,285.578,105.466,283.544z M106.12,290.272c7.141-1.753,14.245-3.655,21.407-5.326
		c-2.899,1.941-5.796,3.886-8.628,5.923c-2.312,1.675-4.57,3.429-6.851,5.151c-1.439,0.704-2.888,1.387-4.341,2.064
		C107.036,295.46,106.497,292.865,106.12,290.272z M108.277,300.288c-0.048-0.17-0.085-0.337-0.132-0.507
		c1.394-0.981,2.752-2.019,4.105-3.064c3.776-1.865,7.52-3.793,11.328-5.591c2.114-1.022,4.244-2.008,6.374-2.997
		c0.387,0.449,0.797,0.882,1.248,1.285c-0.309,1.169-0.635,2.334-0.949,3.502c-6.862,3.981-13.808,7.821-20.621,11.884
		C109.143,303.309,108.699,301.801,108.277,300.288z M111.125,308.944c-0.457-1.129-0.867-2.28-1.257-3.44
		c0.392-0.23,0.782-0.465,1.178-0.687c6.265-3.657,12.607-7.183,18.902-10.789c-0.009,0.035-0.019,0.07-0.029,0.105
		c-1.963,1.812-3.91,3.642-5.895,5.424c-3.99,3.72-8.138,7.293-12.14,11.001C111.625,310.025,111.371,309.488,111.125,308.944z
		 M112.276,311.34c5.732-5.173,11.443-10.37,17.189-15.529c-0.361,1.326-0.713,2.654-1.078,3.979
		c-3.79,3.362-7.562,6.743-11.285,10.18c-1.244,1.118-2.523,2.196-3.824,3.248C112.935,312.598,112.597,311.975,112.276,311.34z
		 M113.696,313.961c4.763-3.829,9.573-8.519,14.334-12.871c-0.679,2.451-1.371,4.898-2.062,7.346
		c-2.603,3.516-5.159,7.066-7.623,10.679c-0.208,0.293-0.415,0.586-0.623,0.879C116.222,318.066,114.895,316.054,113.696,313.961z
		 M123.801,312.603c0.536-0.765,1.091-1.517,1.636-2.276c-1.316,4.649-2.64,9.295-3.965,13.941
		c-1.147-1.172-2.229-2.369-3.226-3.605C120.096,317.975,121.933,315.279,123.801,312.603z M119.404,347.816
		c-0.077-0.107-0.163-0.202-0.232-0.32c0.529-1.888,1.075-3.772,1.676-5.638c0.05-0.203,0.124-0.404,0.201-0.604
		c4.074,3.158,8.501,5.621,13.185,7.281C129.028,349.192,121.887,350.36,119.404,347.816z M134.468,334.318
		c1.387-13.249,3.444-26.39,5.883-39.539c0.352,0.169,0.705,0.339,1.054,0.509c0.423,0.181,0.851,0.369,1.276,0.552
		c0.143,0.832,0.28,1.666,0.426,2.498c-2.634,12.181-5.433,24.336-7.548,36.616C135.194,334.752,134.832,334.53,134.468,334.318z
		 M142.221,337.789c-0.5-0.138-1.003-0.287-1.513-0.462c-1.438-0.513-2.925-1.203-4.408-1.985
		c1.625-9.511,3.684-19.555,5.834-28.956c0.439-2.02,0.886-4.038,1.329-6.057c0.522,2.941,1.059,5.879,1.603,8.816
		c-1.098,9.061-1.998,18.148-2.752,27.239C142.283,336.854,142.253,337.322,142.221,337.789z M150.713,339.034
		c-2.659-0.206-5.106-0.417-7.623-1.019c0.534-8.8,1.436-17.572,2.452-26.33c1.712,9.135,3.521,18.252,5.411,27.354
		C150.872,339.039,150.793,339.034,150.713,339.034z M151.969,339.034c-2.141-9.857-4.227-19.727-6.162-29.626
		c0.303-2.573,0.614-5.144,0.926-7.715c1.734,5.613,3.544,11.216,5.062,16.816c1.672,6.054,4.2,13.401,6.033,19.794
		C155.894,338.712,153.934,338.961,151.969,339.034z M162.077,337.12c-1.958-5.72-3.927-11.44-5.824-17.184
		c-0.489-1.656-0.978-3.311-1.465-4.968c-0.55-1.961-1.102-3.922-1.652-5.883c2.159,4.113,4.318,8.227,6.403,12.379
		c2.142,4.104,4.201,8.252,6.403,12.325c0.253,0.463,0.51,0.924,0.768,1.384C165.202,335.937,163.652,336.578,162.077,337.12z
		 M167.536,334.749c-0.081-0.14-0.166-0.279-0.246-0.419c-1.123-1.964-2.187-3.96-3.24-5.962
		c-3.942-7.499-7.872-15.005-11.818-22.502c-0.468-1.665-0.933-3.33-1.402-4.994c-0.163-0.573-0.327-1.147-0.489-1.72
		c2.18,0.933,4.373,1.849,6.578,2.715c0.13,0.142,0.26,0.286,0.39,0.428c1.549,4.386,3.017,8.798,4.265,13.284
		c1.861,6.41,4.092,12.703,6.278,19.008C167.748,334.645,167.641,334.693,167.536,334.749z M171.063,332.624
		c-0.798,0.553-1.615,1.063-2.444,1.545c-1.652-4.702-3.355-9.387-4.929-14.115c-1.728-5.507-3.352-11.047-5.225-16.505
		c2.573,2.78,5.181,5.526,7.884,8.184c0.21,0.216,0.42,0.434,0.63,0.651c0.413,1.272,0.832,2.542,1.235,3.817
		c1.39,4.297,2.708,8.617,4.078,12.92c0.268,0.656,0.462,1.479,0.708,2.227C172.378,331.789,171.739,332.219,171.063,332.624z
		 M179.134,325.674c-0.116,0.151-0.238,0.291-0.355,0.44c-1.511,1.689-3.155,3.277-5.043,4.701
		c-1.906-5.745-3.776-11.503-5.628-17.266c3.768,3.897,7.521,7.818,11.448,11.55C179.413,325.289,179.278,325.486,179.134,325.674z
		 M180.081,324.381c-4.229-4.031-8.374-8.152-12.458-12.332c-0.747-2.328-1.49-4.658-2.233-6.988
		c1.21,0.434,2.422,0.865,3.633,1.296c4.037,3.306,8.096,6.587,12.181,9.831c0.917,0.711,1.839,1.414,2.77,2.108
		C182.788,320.42,181.486,322.449,180.081,324.381z M184.38,317.547c-4.466-3.354-8.926-6.873-13.358-10.479
		c5.251,1.861,10.519,3.689,15.813,5.437C186.082,314.234,185.263,315.916,184.38,317.547z M188.032,309.575
		c-1.152-0.337-2.301-0.684-3.451-1.028c-1.383-0.849-2.766-1.699-4.133-2.575c-6.34-4.089-12.514-8.426-18.794-12.604
		c-0.035-0.11-0.07-0.22-0.105-0.33c5.173,1.73,10.337,3.493,15.519,5.197c2.619,1.591,5.245,3.17,7.922,4.663
		c1.502,0.824,3,1.662,4.503,2.491C189.048,306.81,188.556,308.202,188.032,309.575z M189.747,304.521
		c-3.023-1.663-6.021-3.369-9.007-5.097c3.193,1.026,6.396,2.019,9.616,2.96C190.164,303.103,189.958,303.813,189.747,304.521z
		 M190.577,301.505c-2.984-0.867-5.971-1.729-8.938-2.633c-1.342-0.4-2.676-0.829-4.011-1.25c-4.43-2.577-8.854-5.164-13.333-7.653
		c1.811,0.43,3.62,0.863,5.435,1.283c0.958,0.254,1.908,0.5,2.865,0.763c1.539,0.355,3.074,0.726,4.612,1.087
		c4.146,2.345,8.317,4.645,12.519,6.89c0.359,0.197,0.725,0.383,1.086,0.577C190.738,300.882,190.656,301.193,190.577,301.505z
		 M191.015,299.718c-1.61-0.838-3.212-1.693-4.819-2.535c-2.209-1.146-4.399-2.33-6.586-3.516c4.019,0.951,8.037,1.908,12.053,2.876
		C191.467,297.61,191.254,298.669,191.015,299.718z M177.557,270.426c2.433-0.426,4.868-0.832,7.314-1.16
		c2.319-0.342,4.628-0.628,6.978-0.939c0.167,0.992,0.316,1.991,0.446,2.997C187.382,271.038,182.469,270.743,177.557,270.426z
		 M199.279,312.74c0.273-0.713,0.544-1.427,0.796-2.153c0.68,1.081,1.448,2.099,2.329,3.003
		C201.361,313.312,200.321,313.022,199.279,312.74z M210.29,272.489c-0.918-3.711-2.071-7.348-3.325-10.961
		c-2.849-8.741-7.028-17.049-12.361-24.543c-1.437-2.117-2.946-4.188-4.56-6.171c2.098-3.384,4.073-6.827,5.653-10.446
		c2.204,7.308,4.426,14.616,6.757,21.881c3.374,10.072,6.477,20.236,9.673,30.367C211.515,272.569,210.902,272.534,210.29,272.489z
		 M388.216,281.938c0.29,1.67,0.504,3.337,0.682,5.003c-12.225,0.015-24.445-0.525-36.671-0.579
		c11.876-2.15,23.701-4.612,35.259-8.073C387.755,279.494,388.003,280.709,388.216,281.938z M387.282,277.446
		c-11.866,3.559-24.017,6.031-36.192,8.281c-1.118,0.212-2.238,0.419-3.357,0.627c-2.877-0.02-5.754-0.057-8.631-0.089
		c-0.053-0.093-0.117-0.179-0.176-0.269c8.895-4.205,17.838-8.316,26.582-12.836c5.786-2.953,11.67-5.723,17.379-8.822
		C384.734,268.501,386.209,272.887,387.282,277.446z M322.57,286.797c-0.446,0.029-0.892,0.059-1.339,0.088
		c-0.266-0.179-0.533-0.358-0.799-0.537C321.145,286.5,321.859,286.64,322.57,286.797z M318.478,285.036
		c-1.144-0.768-2.288-1.537-3.432-2.305c1.278,0.447,2.557,0.89,3.835,1.336c0.699,0.518,1.408,1.024,2.126,1.516
		C320.164,285.398,319.324,285.207,318.478,285.036z M318.997,279.003c-2.16-3.173-4.317-6.35-6.447-9.554
		c1.768,1.668,3.537,3.334,5.299,5.007c2.767,2.635,5.621,5.174,8.533,7.645c0.837,1.277,1.674,2.553,2.501,3.836
		c-0.23-0.125-0.468-0.234-0.71-0.326c-0.534-0.217-1.124-0.332-1.704-0.31C324.078,283.423,321.448,281.343,318.997,279.003z
		 M323.898,295.288c-0.357,0.769-0.71,1.54-1.069,2.308c-2.18,2.12-4.344,4.256-6.487,6.413c0.569-0.852,1.143-1.7,1.704-2.557
		c1.545-2.329,3.121-4.64,4.617-7.001c0.147,0.131,0.298,0.259,0.458,0.372C323.366,295,323.627,295.155,323.898,295.288z
		 M315.806,275.636c-0.054-0.064-0.112-0.123-0.165-0.187c-1.228-1.445-2.47-3.376-3.616-5.45c1.024,1.528,2.046,3.057,3.075,4.581
		C315.332,274.934,315.571,275.283,315.806,275.636z M310.505,266.363c-0.342-0.517-0.684-1.033-1.026-1.55
		c-0.268-0.619-0.524-1.23-0.756-1.819c-0.449-1.102-0.873-2.204-1.28-3.315c-1.319-4.236-2.594-8.491-3.798-12.763
		c5.561,8.773,11.182,17.508,16.871,26.2c1.391,2.158,2.802,4.302,4.212,6.447c-4.084-3.59-8.059-7.306-11.981-11.076
		C311.996,267.783,311.253,267.071,310.505,266.363z M330.632,295.837c0.112,0.567,0.218,1.135,0.335,1.701
		c-0.213-0.25-0.427-0.5-0.642-0.749C330.426,296.471,330.527,296.154,330.632,295.837z M329.812,296.189
		c-0.304-0.353-0.608-0.706-0.909-1.062c0.014-0.077,0.029-0.154,0.042-0.23c0.406-0.257,0.771-0.572,1.053-0.969
		c0.077-0.074,0.139-0.162,0.211-0.241c0.056,0.299,0.119,0.597,0.177,0.896C330.191,295.117,329.995,295.651,329.812,296.189z
		 M330.053,286.403c-0.49-0.827-0.979-1.655-1.492-2.471c0.674,0.558,1.353,1.111,2.033,1.663
		C330.412,285.862,330.233,286.133,330.053,286.403z M326.742,295.695c-0.163,0.442-0.327,0.884-0.49,1.327
		c-0.056-0.42-0.112-0.852-0.167-1.263C326.305,295.75,326.524,295.727,326.742,295.695z M327.715,295.474
		c0.104-0.034,0.204-0.079,0.307-0.119c0.018,0.022,0.037,0.044,0.055,0.066c-0.391,2.154-0.788,4.306-1.182,6.459
		c-0.142-1.069-0.283-2.139-0.423-3.196C326.88,297.612,327.297,296.542,327.715,295.474z M328.709,296.175
		c0.265,0.314,0.529,0.629,0.792,0.944c-0.15,0.451-0.302,0.901-0.451,1.352c-0.628,1.945-1.229,3.898-1.83,5.85
		c-0.003-0.02-0.005-0.041-0.008-0.061C327.713,301.566,328.214,298.871,328.709,296.175z M329.579,299.076
		c0.155-0.44,0.3-0.887,0.443-1.335c0.439,0.521,0.873,1.047,1.314,1.566c0.702,3.265,1.47,6.516,2.272,9.759
		c-1.082,5.26-2.154,10.523-3.209,15.789c-0.921-5.709-1.817-11.421-2.72-17.13c-0.078-0.566-0.156-1.148-0.235-1.731
		C328.14,303.684,328.846,301.376,329.579,299.076z M332.365,300.499c0.807,0.94,1.613,1.881,2.429,2.813
		c-0.277,1.333-0.549,2.667-0.824,4.001C333.409,305.048,332.871,302.777,332.365,300.499z M331.973,298.712
		c-0.02-0.093-0.041-0.186-0.061-0.279c-0.264-1.188-0.575-2.562-0.837-3.851c0.188-0.5,0.393-0.992,0.622-1.471
		c0.824,0.315,1.646,0.631,2.465,0.947c0.69,0.655,1.385,1.304,2.082,1.952c0.014,0.047,0.029,0.094,0.044,0.141
		c-0.435,2.034-0.848,4.073-1.273,6.109C333.989,301.087,332.986,299.895,331.973,298.712z M334.86,281.322
		c0.064-0.185,0.132-0.368,0.197-0.552c0.288-0.423,0.578-0.846,0.866-1.269c-0.048,0.96-0.09,1.931-0.112,2.873
		C335.492,282.024,335.177,281.672,334.86,281.322z M337.96,297.581c0.076,0.594,0.147,1.189,0.22,1.783
		c-0.233-0.74-0.476-1.477-0.706-2.219C337.634,297.292,337.799,297.434,337.96,297.581z M337.175,295.914
		c0.047-0.214,0.095-0.428,0.141-0.643c0.119,0.046,0.236,0.094,0.355,0.14c0.049,0.362,0.097,0.723,0.144,1.085
		C337.603,296.301,337.386,296.11,337.175,295.914z M337.98,292.307c0.004-0.016,0.007-0.032,0.011-0.048
		c0.168-0.145,0.325-0.302,0.468-0.472c0.141-0.164,0.267-0.344,0.391-0.523c0.027,0.007,0.053,0.013,0.08,0.02
		c1.065,1.677,2.131,3.353,3.194,5.031c-1.264-0.5-2.528-1.002-3.794-1.499C338.217,293.966,338.1,293.13,337.98,292.307z
		 M337.809,284.592c-0.154-0.169-0.309-0.339-0.464-0.509c0.1-0.233,0.204-0.466,0.305-0.699c1.28-0.931,2.559-1.861,3.837-2.796
		c-0.634,0.722-1.266,1.442-1.893,2.157C339.032,283.366,338.389,284.057,337.809,284.592z M337.087,282.785
		c-0.091,0.067-0.183,0.133-0.275,0.199c-0.066-1.566-0.078-3.134-0.056-4.701c2.798-4.087,5.642-8.17,8.527-12.192
		C342.397,271.581,339.599,277.117,337.087,282.785z M336.982,292.906c-0.092,0.425-0.182,0.85-0.273,1.276
		c-0.058-0.022-0.116-0.044-0.173-0.067c-0.022-0.071-0.044-0.141-0.065-0.212c-0.086-0.228-0.157-0.467-0.227-0.707
		C336.497,293.121,336.743,293.02,336.982,292.906z M336.776,297.741c0.628,2.016,1.275,4.026,1.929,6.033
		c0.12,1.037,0.24,2.074,0.358,3.112c-1.125-1.276-2.243-2.559-3.363-3.84C336.051,301.277,336.405,299.507,336.776,297.741z
		 M338.777,298.314c0.33,0.296,0.656,0.597,0.991,0.888c2.82,2.396,5.71,4.706,8.619,6.993
		c7.298,11.498,14.672,22.948,22.422,34.145c-5.131-5.194-10.095-10.55-15.105-15.861c-4.706-4.97-9.545-9.816-14.166-14.865
		c-0.604-1.799-1.208-3.598-1.814-5.397c-0.137-0.417-0.263-0.836-0.399-1.253C339.145,301.404,338.964,299.849,338.777,298.314z
		 M342.07,300.233c-1.17-0.963-2.303-1.968-3.426-2.985c-0.064-0.512-0.127-1.026-0.193-1.531c1.466,0.573,2.93,1.147,4.387,1.726
		c1.481,2.339,2.963,4.677,4.446,7.015C345.545,303.081,343.807,301.68,342.07,300.233z M339.908,291.526
		c1.863,0.472,3.728,0.935,5.597,1.38c7.339,4.4,14.52,9.055,21.658,13.777c-6.372-2.641-12.722-5.327-19.155-8.043
		c-1.579-0.63-3.162-1.248-4.743-1.874C342.138,295.024,341.024,293.274,339.908,291.526z M339.45,290.72
		c-0.023-0.003-0.046-0.011-0.068-0.016c-0.037-0.059-0.075-0.117-0.112-0.175c0.164-0.334,0.298-0.682,0.384-1.042
		c1.279,0.731,2.557,1.461,3.825,2.21C342.134,291.375,340.791,291.052,339.45,290.72z M339.474,287.083
		c1.313,0.019,2.627,0.037,3.941,0.053c-1.194,0.211-2.386,0.427-3.582,0.623c-0.053,0.009-0.107,0.016-0.16,0.025
		C339.625,287.545,339.555,287.312,339.474,287.083z M382.614,263.714c-10.805,5.642-21.723,11.08-32.688,16.404
		c-3.714,1.755-7.463,3.437-11.194,5.155c-0.077,0.044-0.162,0.087-0.25,0.13c-0.037-0.052-0.076-0.105-0.117-0.158
		c1.72-1.51,3.118-3.394,4.683-5.06c0.605-0.688,1.203-1.381,1.806-2.071c7.661-5.649,15.238-11.409,22.568-17.488
		c3.054-2.548,6.146-5.076,8.948-7.903C378.759,256.159,380.849,259.836,382.614,263.714z M375.836,251.958
		c-8.893,8.604-18.729,15.921-28.46,23.264c2.177-2.508,4.351-5.02,6.529-7.527c6.014-6.916,12.067-13.826,17.663-21.088
		C373.075,248.314,374.503,250.096,375.836,251.958z M370.982,245.957c-8.173,10.372-17.873,21.404-27.079,31.88
		c-1.865,1.365-3.741,2.714-5.611,4.072c2.855-6.455,6.134-12.93,9.547-19.347c2.476-3.387,4.978-6.718,7.506-9.938
		c3.212-4.163,6.517-8.252,9.863-12.308C367.249,242.071,369.171,243.96,370.982,245.957z M363.113,238.578
		c0.551,0.435,1.084,0.891,1.62,1.344c-5.035,6.184-10.041,12.526-14.937,18.99c2.078-3.844,4.186-7.664,6.266-11.436
		c1.869-3.34,3.697-6.706,5.417-10.126C362.025,237.753,362.574,238.153,363.113,238.578z M360.908,236.921
		c-2.668,5.546-5.768,10.874-8.745,16.258c-1.579,2.97-3.175,5.934-4.759,8.906c-3.607,4.83-7.136,9.723-10.563,14.664
		c2.378-6.92,4.981-13.76,7.709-20.554c3.034-7.943,5.856-15.968,8.463-24.061C355.715,233.491,358.355,235.085,360.908,236.921z
		 M352.254,231.768c-3.841,11.837-8.174,23.505-12.777,35.068c-0.77,1.967-1.48,3.955-2.171,5.95
		c-0.124,0.293-0.247,0.584-0.373,0.886c0.012-0.301,0.01-0.598-0.025-0.886c1.065-15.117,1.966-30.252,2.048-45.404
		C343.484,228.215,347.945,229.685,352.254,231.768z M338.143,227.227c-0.134,14.062-0.846,28.11-1.742,42.143
		c-0.143,2.254-0.311,4.505-0.475,6.757c-0.583,1.449-1.157,2.937-1.687,4.411c-0.012,0.019-0.025,0.037-0.037,0.056
		c-0.277-0.307-0.555-0.613-0.832-0.92c0.001-0.03-0.009-0.061-0.005-0.091c-0.103-0.115-0.208-0.228-0.309-0.345
		c-0.085-9.231-1.174-18.43-1.536-27.653c-0.47-8.328-0.562-16.668-0.676-25.006C333.285,226.614,335.723,226.824,338.143,227.227z
		 M321.958,227.261c2.653-0.46,5.322-0.693,7.989-0.703c0.339,14.663,0.791,29.324,1.772,43.96c0.132,2.447,0.257,4.895,0.302,7.345
		c-0.292-0.369-0.607-0.723-0.928-1.07c-1.057-5.868-1.978-11.765-3.143-17.612c-2.096-10.622-4.566-21.165-6.917-31.733
		C321.342,227.389,321.647,227.315,321.958,227.261z M320.277,227.602c2.756,13.17,6.069,26.227,8.283,39.507
		c0.488,2.824,0.977,5.648,1.477,8.469c-0.394-0.473-0.779-0.955-1.146-1.454c-1.707-4.013-3.444-8.012-5.235-11.988
		c-0.276-0.606-0.55-1.214-0.826-1.82c-2.086-5.848-4.058-11.738-5.874-17.677c-1.22-4.183-2.759-8.817-3.793-12.953
		C315.47,228.811,317.845,228.113,320.277,227.602z M323.602,264.934c-0.645-1.343-1.266-2.693-1.883-4.024
		c-1.458-3.27-2.818-6.618-4.122-10c1.507,3.258,3,6.52,4.462,9.785C322.562,262.112,323.083,263.522,323.602,264.934z
		 M312.466,229.953c1.406,5.93,3.419,11.73,5.142,17.574c0.492,1.534,0.994,3.065,1.502,4.595
		c-1.637-3.598-3.293-7.188-4.978-10.764c-0.542-1.593-1.082-3.188-1.594-4.788c-0.628-1.938-1.23-3.904-1.862-5.862
		C311.268,230.445,311.865,230.192,312.466,229.953z M304.906,233.734c2.777,6.734,5.489,13.353,8.225,20.147
		c2.425,5.697,4.764,11.487,8.147,16.71c1.272,2.026,2.637,3.993,4.264,5.739c1.44,1.539,2.98,2.993,4.33,4.51
		c0.505,1.197,1.003,2.396,1.521,3.587c-0.113,0.164-0.225,0.329-0.337,0.493c-1.335-1.081-2.662-2.172-3.967-3.287
		c-1.937-2.98-3.939-5.928-5.812-8.936c-6.235-9.455-12.34-18.992-18.411-28.552c-0.47-1.725-0.927-3.452-1.365-5.184
		c-0.188-0.841-0.366-1.683-0.55-2.525C302.235,235.471,303.552,234.565,304.906,233.734z M304.363,170.822
		c0.085,9.469-0.974,18.642-2.595,27.675c-0.754,4.101-1.709,8.161-2.605,12.232c-0.02,0.175-0.079,0.351-0.132,0.526
		c-0.271-0.221-0.472-0.447-0.785-0.958c-0.644-1.356-1.136-2.747-1.704-4.112c-0.008-0.025-0.008-0.042-0.017-0.059
		c-0.008-0.008-0.017-0.034-0.034-0.076c-0.085-0.187-0.152-0.398-0.237-0.593c0.127-0.042,0.237-0.093,0.517-0.348
		c0.186-0.212,0.339-0.526,0.305-0.805c0-0.008,0-0.025-0.008-0.042v-0.034c-0.009-0.025-0.009-0.042-0.017-0.076
		c-0.085-0.153-0.034-0.212-0.17-0.331c-0.085-0.102-0.178-0.187-0.288-0.254c-0.059-0.025-0.136-0.059-0.178-0.068
		c-0.017-0.008-0.025-0.008-0.025-0.008c-0.008-0.008-0.025-0.008-0.034-0.017c-0.059-0.017-0.118-0.017-0.178-0.017
		c-0.009-0.009-0.195,0.008-0.339,0.025c-0.034,0.008-0.042,0.008-0.051,0.008c-0.059,0-0.119,0.008-0.187,0.008
		c-0.681-2.058-1.36-4.117-2.04-6.176c4.548-11.679,8.017-23.901,10.039-36.09C304.065,164.427,304.312,167.646,304.363,170.822z
		 M296.675,245.652c-0.765-1.125-1.526-2.259-2.295-3.376c0.302-0.316,0.611-0.624,0.919-0.932
		C295.749,242.782,296.207,244.218,296.675,245.652z M299.364,135.727c0.034-0.046,0.068-0.103,0.101-0.154
		c0.176-0.134,0.351-0.269,0.527-0.401c0.734-0.585,1.672-1.602,2.424-2.074c0.613-0.368,1.255-0.632,1.919-0.831
		c0.159,0.042,0.316,0.089,0.474,0.132c0.115,0.023,0.407,0.167,0.741,0.358c-0.692,2.615-0.932,6.822-0.955,7.55
		c-0.198,3.649-0.407,7.3-0.8,10.934c-0.125,1.336-0.273,2.672-0.438,4.008c-1.427-5.931-3.684-11.631-6.954-16.855
		C297.753,137.54,298.961,136.37,299.364,135.727z M274.308,123.737c6.777,2.131,13.272,5.58,18.066,10.761
		c-1.271,0.5-2.704,0.853-4.105,1.106c-0.137,0.001-0.275,0.003-0.412,0.003c-0.645-1.077-2.014-2.13-3.525-2.144
		c-0.649-0.035-1.27,0.066-1.84,0.274c-0.798-0.543-1.436-1.146-2.221-2.071C278.569,129.753,276.652,126.495,274.308,123.737z
		 M226.192,276.228c-0.704,0.61-1.433,1.238-2.179,1.874c-1.628-1.399-3.357-2.62-5.129-3.527c-0.992-2.806-1.958-5.621-2.916-8.435
		c1.128-0.882,2.416-2.052,3.484-3.035c20.38-18.193,36.217-40.871,49.205-64.778c3.722-6.63,7.409-13.276,10.936-20.008
		c0.051-0.11,0.119-0.22,0.178-0.331c0.331,1.068,0.67,2.136,1.043,3.205c1.56,4.476,2.993,9.003,4.425,13.522
		c-3.145,8.91-8.444,16.955-13.37,24.984c-7.35,12.013-15.353,23.534-24.331,34.275C240.952,261.876,234.06,269.582,226.192,276.228
		z M288.648,206.136c-0.395,0.326-0.681,0.78-0.591,1.26c-1.519,3.225-3.13,6.433-4.866,9.653
		c-9.786,18.681-21.676,35.764-35.496,51.393c-5.262,5.857-10.766,13.011-16.392,18.076c-0.107-0.168-0.201-0.341-0.312-0.506
		c-0.738-1.119-1.585-2.255-2.509-3.366c0.848-0.746,1.696-1.492,2.527-2.255c8.105-7.723,15.633-16.26,22.737-24.916
		c6.528-8.147,12.267-16.845,18.168-25.45c4.976-7.155,9.537-14.607,13.768-22.229c0.856-1.45,1.636-2.933,2.365-4.434
		c0.261,0.776,0.543,1.547,0.815,2.322C288.791,205.835,288.718,205.985,288.648,206.136z M289.038,183.821
		c-0.907-2.696-1.823-5.383-2.764-8.071c-0.822-2.586-1.662-5.171-2.518-7.74c0.059-0.042,0.11-0.076,0.161-0.119
		c0.483-0.398,0.695-0.839,0.619-1.373c-0.093-0.415-0.271-0.602-0.56-0.865c-0.373-0.28-0.814-0.483-1.306-0.542
		c-0.212-0.585-0.695-1.077-1.272-1.306c-0.042-0.017-0.093-0.025-0.135-0.034c-1.204-2.832-2.45-6.011-3.501-9.071
		c-0.577-1.619-1.17-3.23-1.772-4.841c3.289-2.213,7.155-4.239,10.606-6.435c0-0.008,0.008-0.008,0.008-0.008
		c0.221-0.17,0.432-0.365,0.628-0.576c0.034-0.025,0.068-0.059,0.093-0.093c0.093-0.093,0.144-0.229,0.187-0.356
		c0.042-0.161,0.042-0.356-0.025-0.509c-0.009-0.085-0.059-0.288-0.102-0.432c-0.017-0.042-0.034-0.11-0.034-0.136
		c-0.009-0.017-0.009-0.042-0.009-0.059c-0.026-0.132,0.057-0.345,0.2-0.625c0.367-0.035,0.734-0.079,1.097-0.13
		c0.052-0.013,0.105-0.026,0.157-0.039c0.641-0.024,1.276-0.103,1.903-0.229c0.003,0,0.005-0.001,0.007-0.001
		c0.378-0.05,0.75-0.109,1.115-0.173c0.09-0.016,0.179-0.032,0.268-0.048c0.37-0.069,0.733-0.143,1.076-0.229
		c0.002-0.001,0.003-0.001,0.005-0.002c0.334-0.084,0.644-0.179,0.941-0.28c0.076-0.026,0.15-0.052,0.223-0.08
		c0.292-0.108,0.568-0.223,0.808-0.352c0.157-0.066,0.315-0.148,0.472-0.228c3.659,5.674,6.054,12.208,7.39,18.975
		c-1.274,8.98-3.394,17.959-6.162,26.836c-1.151,3.803-2.425,7.477-3.806,11.084C291.721,191.757,290.399,187.781,289.038,183.821z
		 M293.805,242.881c1.272,1.865,2.538,3.735,3.801,5.607c0.909,2.735,1.833,5.465,2.742,8.196c-3.354-3.209-6.71-6.417-10.083-9.606
		C291.391,245.606,292.574,244.208,293.805,242.881z M287.014,251.768c0.862-1.377,1.778-2.691,2.724-3.967
		c3.735,3.607,7.495,7.187,11.268,10.754c1.93,5.33,4.351,10.601,7.591,15.248c-5.446-3.551-10.892-7.1-16.314-10.687
		c-2.657-1.816-5.312-3.636-7.914-5.529c-0.163-0.091-0.295-0.213-0.426-0.337C284.877,255.374,285.901,253.545,287.014,251.768z
		 M283.586,258.012c8.395,6.303,17.392,11.765,26.221,17.443c2.006,2.613,4.308,4.986,6.97,7.01c-1.453-0.499-2.906-0.999-4.358-1.5
		c-10.006-6.716-20.048-13.377-30.254-19.787C282.611,260.11,283.083,259.054,283.586,258.012z M281.813,262.033
		c9.212,5.852,18.446,11.672,27.454,17.836c-1.332-0.468-2.664-0.938-3.99-1.422c-8.685-2.968-17.178-6.456-25.806-9.579
		C280.126,266.541,280.916,264.263,281.813,262.033z M279.269,269.64c10.801,4.172,21.675,8.138,32.596,11.982
		c1.489,1.005,2.99,1.992,4.484,2.99c-13.038-2.526-26.344-4.057-38.908-5.698C277.843,275.765,278.454,272.668,279.269,269.64z
		 M277.361,279.608c11.774,1.824,22.68,2.94,34.484,5.057c2.146,0.389,4.288,0.801,6.427,1.231c0.54,0.359,1.079,0.718,1.618,1.079
		c-11.143,0.746-22.282,1.596-33.389,2.749c-3.205,0.335-6.403,0.727-9.593,1.178C276.762,287.09,276.924,283.316,277.361,279.608z
		 M276.929,291.456c14.431-1.939,29.33-2.996,44.09-3.728c0.226,0.15,0.451,0.303,0.678,0.452c0.083,0.054,0.166,0.107,0.249,0.161
		c-0.148,0.314-0.276,0.643-0.373,0.984c-2.139,0.634-4.249,1.369-6.345,2.146c-4.247,0.075-8.494,0.298-12.738,0.418
		c-8.49,0.272-16.982,0.626-25.46,1.176C276.995,292.528,276.953,291.991,276.929,291.456z M321.322,291.496
		c-1.207-0.037-2.414-0.048-3.621-0.047c1.222-0.43,2.448-0.848,3.682-1.238C321.321,290.637,321.301,291.069,321.322,291.496z
		 M277.971,301.046c-0.41-2.363-0.697-4.723-0.883-7.075c11.816-0.726,23.64-1.272,35.474-1.646
		c0.148-0.005,0.297-0.009,0.445-0.015c-2.393,0.918-4.773,1.868-7.163,2.769c-8.935,3.55-17.93,7.307-26.842,10.858
		C278.613,304.326,278.258,302.699,277.971,301.046z M279.182,306.685c11.711-4.573,23.227-9.639,35.028-13.982
		c0.434-0.157,0.869-0.311,1.303-0.468c1.964-0.048,3.928-0.063,5.892-0.009c0.006,0.035,0.014,0.069,0.02,0.104
		c-1.225,0.797-2.434,1.616-3.617,2.473c-12.322,6.053-24.438,12.542-36.301,19.429C280.603,311.781,279.83,309.261,279.182,306.685
		z M281.78,314.947c10.335-5.427,20.435-11.297,30.872-16.531c0.415-0.21,0.831-0.42,1.246-0.631
		c-3.908,3.113-7.639,6.461-11.31,9.833c-5.679,5.274-11.281,10.632-16.816,16.058C284.26,320.882,282.926,317.967,281.78,314.947z
		 M286.151,324.365c9.336-8.844,18.379-18.03,28.386-26.125c0.953-0.749,1.954-1.515,2.98-2.284
		c1.493-0.756,2.986-1.515,4.481-2.267c0.048,0.068,0.085,0.143,0.136,0.209c-2.854,4.43-5.796,8.804-8.784,13.147
		c-2.765,2.828-5.508,5.678-8.217,8.561c-4.899,5.179-9.878,10.292-14.669,15.572C288.9,329.004,287.465,326.728,286.151,324.365z
		 M290.964,331.848c6.529-7.161,13.184-14.206,19.898-21.194c-1.523,2.193-3.05,4.383-4.577,6.572
		c-4.226,6.017-8.641,11.927-12.511,18.183C292.796,334.258,291.864,333.066,290.964,331.848z M294.388,336.12
		c6.299-9.845,13.228-19.268,19.81-28.926c1.137-1.178,2.27-2.358,3.408-3.534c1.454-1.467,2.932-2.911,4.416-4.348
		c-6.836,14.593-13.919,29.073-20.561,43.755C298.933,340.935,296.568,338.616,294.388,336.12z M303.075,344.406
		c-0.299-0.236-0.585-0.488-0.88-0.73c4.981-10.687,9.827-21.437,14.916-32.073c2.149-4.54,4.255-9.1,6.342-13.669
		c0.625-0.602,1.249-1.205,1.875-1.806c0.108,0.831,0.223,1.664,0.333,2.495c-6.023,16.337-12.116,33.105-18.255,48.894
		C305.937,346.553,304.489,345.522,303.075,344.406z M308.242,348.056c5.258-14.622,10.89-29.105,16.122-43.736
		c0.496-1.358,1.005-2.712,1.515-4.066c0.182,1.355,0.376,2.712,0.569,4.068c-0.405,2.205-0.802,4.411-1.211,6.616
		c-0.3,1.025-0.613,2.047-0.907,3.074c-3.54,12.396-6.804,24.868-10.168,37.312C312.153,350.366,310.176,349.28,308.242,348.056z
		 M314.955,351.708c2.966-10.963,5.78-21.97,8.812-32.914c-0.853,4.561-1.703,9.123-2.57,13.681
		c-1.252,6.611-2.715,13.531-3.92,20.229C316.5,352.39,315.725,352.061,314.955,351.708z M318.056,353.016
		c2.555-14.024,5.378-28,7.925-42.027c0.316-1.09,0.626-2.183,0.949-3.271c0.936,6.4,1.959,12.823,3.04,19.284
		c-0.293,1.459-0.584,2.918-0.878,4.377c-1.65,7.855-3.363,15.693-4.8,23.59C322.192,354.451,320.11,353.807,318.056,353.016z
		 M325.177,355.186c1.121-6.814,2.496-13.575,4.036-20.308c0.361-1.896,0.739-3.788,1.119-5.679
		c1.5,9.078,2.936,18.172,4.719,27.199C331.741,356.329,328.439,355.928,325.177,355.186z M344.23,355.722
		c-2.728,0.473-5.472,0.7-8.214,0.699c-1.96-9.74-3.663-19.532-5.258-29.342c1.092-5.361,2.225-10.712,3.333-16.07
		c0.879,3.506,1.786,7.005,2.68,10.503c2.863,11.33,5.697,22.67,8.795,33.939C345.121,355.542,344.679,355.644,344.23,355.722z
		 M338.352,324.477c-1.259-5.084-2.616-10.144-3.897-15.222c0.138-0.67,0.28-1.339,0.416-2.009c0.208-1.045,0.414-2.091,0.62-3.137
		c1.231,1.398,2.481,2.779,3.73,4.161c0.539,4.749,1.085,9.517,1.762,14.308c1.372,10.611,3.237,21.146,5.18,31.666
		C343.334,344.382,340.898,334.414,338.352,324.477z M347.305,355.074c-2.738-14.223-5.219-28.546-6.882-42.656
		c-0.131-1.063-0.259-2.147-0.387-3.238c0.244,0.268,0.482,0.542,0.726,0.81c1.13,3.356,2.28,6.705,3.443,10.051
		c3.505,10.837,7.521,21.492,11.367,32.209C352.91,353.436,350.15,354.387,347.305,355.074z M356.429,351.864
		c-5.141-13.303-9.704-26.81-14.245-40.326c3.848,4.176,7.766,8.289,11.74,12.347c5.622,5.949,11.184,11.959,16.964,17.756
		C366.581,345.94,361.713,349.386,356.429,351.864z M379.174,331.216c-2.128,3.398-4.522,6.491-7.138,9.261
		c-7.535-10.737-14.721-21.713-21.748-32.787c2.896,2.262,5.804,4.509,8.685,6.789c6.911,5.505,13.497,11.186,20.352,16.484
		C379.272,331.046,379.226,331.132,379.174,331.216z M379.77,330.21c-5.827-4.433-11.399-9.138-17.246-13.841
		c-4.473-3.595-8.912-6.952-13.335-10.413c-0.392-0.619-0.785-1.238-1.177-1.857c-1.335-2.068-2.675-4.132-4.013-6.198
		c6.647,2.654,13.206,5.393,19.804,8.313c2.249,0.92,4.508,1.815,6.763,2.721c4.888,3.247,9.775,6.495,14.686,9.705
		C383.802,322.673,381.972,326.547,379.77,330.21z M385.548,317.812c-3.727-2.467-7.464-4.919-11.208-7.358
		c4.01,1.599,8.024,3.185,12.039,4.771C386.118,316.093,385.843,316.956,385.548,317.812z M386.602,314.491
		c-5.275-2.044-10.482-4.124-15.645-6.244c-5.735-3.728-11.477-7.444-17.197-11.195c-1.907-1.239-3.853-2.415-5.809-3.573
		c5.02,1.174,10.053,2.298,15.073,3.47c8.6,2.119,17.185,4.302,25.818,6.285C388.398,307.071,387.655,310.836,386.602,314.491z
		 M388.942,302.364c-13.239-3.095-26.439-6.356-39.711-9.311c-1.105-0.258-2.208-0.518-3.313-0.778
		c-2.048-1.195-4.103-2.378-6.15-3.575c0-0.055-0.008-0.11-0.01-0.166c2.604-0.442,5.209-0.889,7.814-1.345
		c9.875,0.104,19.75,0.173,29.62,0.511c3.931,0.111,7.865,0.153,11.797,0.086C389.457,292.706,389.436,297.587,388.942,302.364z"/>
</g>
</svg>
